# xmcd
#
# Track frame offsets: 
#        150
#        19759
#        36812
#        54146
#        69150
#        84917
#        100554
#        112685
#        129694
#        142615
#        156508
#        168451
#
# Disc length: 2460 seconds
#
# Revision: 0
# Processed by: cddbd v1.5.2PL0 Copyright (c) Steve Scherf et al.
# Submitted via: ExactAudioCopyFreeDBPlugin 1.0
#
DISCID=84099a0c
DTITLE=Kenny Rogers - She Believes In Me
DYEAR=1900
DGENRE=Country
TTITLE0=She Believes In Me
TTITLE1=You Decorated My Life
TTITLE2=Lady
TTITLE3=Crazy
TTITLE4=Through The Years
TTITLE5=When I Fall In Love
TTITLE6=It Had To Be You
TTITLE7=When A Man Loves A Woman
TTITLE8=As Time Goes By
TTITLE9=Love Me Tender
TTITLE10=Always
TTITLE11=The Wind Beneath My Wings
EXTD=
EXTT0=
EXTT1=
EXTT2=
EXTT3=
EXTT4=
EXTT5=
EXTT6=
EXTT7=
EXTT8=
EXTT9=
EXTT10=
EXTT11=
PLAYORDER=
